<svg width="44" height="44" viewBox="0 0 44 44" fill="none" xmlns="http://www.w3.org/2000/svg">
<mask id="mask0_7011_333" style="mask-type:alpha" maskUnits="userSpaceOnUse" x="0" y="0" width="44" height="44">
<rect x="0.832031" y="0.751465" width="42.3651" height="42.3651" fill="#D9D9D9"/>
</mask>
<g mask="url(#mask0_7011_333)">
<path d="M19.4746 28.832L30.7654 17.5413L29.516 16.292L19.4746 26.3334L14.4438 21.3025L13.1944 22.5519L19.4746 28.832ZM22.0196 37.821C19.8228 37.821 17.7574 37.4041 15.8233 36.5703C13.8895 35.7365 12.2072 34.605 10.7765 33.1758C9.34582 31.7466 8.21329 30.0658 7.37893 28.1335C6.54428 26.2014 6.12695 24.1369 6.12695 21.9398C6.12695 19.743 6.54384 17.6775 7.37761 15.7434C8.21138 13.8096 9.34288 12.1274 10.7721 10.6967C12.2013 9.26598 13.8821 8.13345 15.8144 7.2991C17.7465 6.46444 19.811 6.04712 22.0081 6.04712C24.2049 6.04712 26.2704 6.464 28.2045 7.29777C30.1383 8.13154 31.8205 9.26304 33.2512 10.6923C34.6819 12.1215 35.8145 13.8023 36.6488 15.7346C37.4835 17.6666 37.9008 19.7312 37.9008 21.9283C37.9008 24.1251 37.4839 26.1906 36.6501 28.1246C35.8164 30.0584 34.6849 31.7407 33.2556 33.1714C31.8264 34.6021 30.1456 35.7346 28.2133 36.569C26.2813 37.4036 24.2167 37.821 22.0196 37.821ZM22.0139 36.0557C25.9562 36.0557 29.2954 34.6877 32.0315 31.9516C34.7675 29.2155 36.1356 25.8763 36.1356 21.934C36.1356 17.9917 34.7675 14.6525 32.0315 11.9165C29.2954 9.18037 25.9562 7.81233 22.0139 7.81233C18.0716 7.81233 14.7324 9.18037 11.9963 11.9165C9.26021 14.6525 7.89217 17.9917 7.89217 21.934C7.89217 25.8763 9.26021 29.2155 11.9963 31.9516C14.7324 34.6877 18.0716 36.0557 22.0139 36.0557Z" fill="#1C1B1F"/>
</g>
</svg>
